#!OML:ASF F:\twosubjects\two\Thursday\Session 1\justin.ASF
:FULLY-SPECIFIED
:DEGREES
475
root 11.16 18.0757 -2.17191 -168.751 23.9706 181.329
lowerback 3.72226 2.5527 -9.27904
upperback -1.18911 3.37307 6.43532
thorax -4.30402 2.1264 11.9665
lowerneck -24.3355 -7.06393 -15.6572
upperneck 22.4678 -3.08277 -1.01314
head 11.7662 -2.71729 1.62121
rclavicle -1.17283e-014 -2.38542e-014
rhumerus 41.6529 10.46 -68.4735
rradius 44.4007
rwrist -19.3132
rhand -53.6465 17.1677
rfingers 7.12502
rthumb -26.0849 -11.0611
lclavicle -1.17283e-014 -2.38542e-014
lhumerus 45.636 -7.50666 89.4794
lradius 35.6153
lwrist -3.88681
lhand -30.1184 52.8355
lfingers 7.12502
lthumb -3.43182 442.788
rfemur -25.0512 -0.725984 15.0568
rtibia 36.5277
rfoot -19.2398 -6.73947
rtoes -14.6782
lfemur -7.21779 -0.251419 -12.0639
ltibia 15.5526
lfoot -12.8837 0.419614
ltoes -20.4884
476
root 11.2425 18.0842 -2.15039 -168.902 23.4373 181.248
lowerback 3.92037 2.44866 -9.11196
upperback -1.21506 3.21618 6.33383
thorax -4.38344 2.04292 11.758
lowerneck -25.0003 -6.80561 -16.1034
upperneck 23.2187 -2.64678 -0.133717
head 12.1648 -2.49085 2.09167
rclavicle -4.96962e-015 -7.79236e-014
rhumerus 42.1721 10.6811 -68.7893
rradius 42.9807
rwrist -17.2896
rhand -54.5422 16.675
rfingers 7.12502
rthumb -26.9422 -11.4244
lclavicle -4.96962e-015 -7.79236e-014
lhumerus 46.1375 -7.60941 88.6445
lradius 34.6843
lwrist -4.15708
lhand -30.0466 52.5021
lfingers 7.12502
lthumb -3.36248 442.455
rfemur -24.8265 -0.694424 15.2939
rtibia 36.6643
rfoot -19.4581 -7.15413
rtoes -13.9469
lfemur -7.28112 -0.655429 -11.777
ltibia 15.752
lfoot -12.7824 0.342247
ltoes -21.3021
477
root 11.326 18.0852 -2.1194 -168.83 22.8282 181.722
lowerback 4.08912 2.32362 -8.45782
upperback -1.20311 3.08367 6.37192
thorax -4.3921 1.9621 11.4128
lowerneck -24.4803 -6.55626 -14.2712
upperneck 22.2952 -2.66836 -1.81596
head 11.6467 -2.5115 1.18262
rclavicle -2.16675e-014 -1.06549e-013
rhumerus 42.8231 10.8124 -69.1736
rradius 41.5542
rwrist -15.3319
rhand -55.17 15.0395
rfingers 7.12502
rthumb -27.5428 -12.9656
lclavicle -2.16675e-014 -1.06549e-013
lhumerus 46.8593 -7.60879 87.8764
lradius 33.6282
lwrist -4.62036
lhand -29.8823 52.4643
lfingers 7.12502
lthumb -3.20376 442.42
rfemur -24.6803 -0.719655 16.1746
rtibia 36.8057
rfoot -19.5753 -7.57063
rtoes -14.1356
lfemur -7.25365 -0.798163 -10.8972
ltibia 15.802
lfoot -12.8331 0.276366
ltoes -23.8232
478
root 11.4065 18.0777 -2.09027 -169.004 22.4176 181.796
lowerback 4.35665 2.29573 -8.18769
upperback -1.24104 3.03977 6.29888
thorax -4.55246 1.93976 11.1629
lowerneck -24.8456 -6.58036 -14.41
upperneck 22.6784 -2.70227 -1.3751
head 11.8696 -2.50718 1.3539
rclavicle -1.45113e-014 0
rhumerus 43.3805 11.0132 -69.0968
rradius 40.1808
rwrist -14.7135
rhand -55.7918 14.5839
rfingers 7.12502
rthumb -28.1372 -13.3249
lclavicle -1.45113e-014 0
lhumerus 47.1027 -7.50581 87.5415
lradius 32.7013
lwrist -5.45349
lhand -29.22 52.4022
lfingers 7.12502
lthumb -2.56418 442.367
rfemur -24.4963 -0.838182 16.6147
rtibia 36.9644
rfoot -19.5812 -7.72024
rtoes -12.9777
lfemur -7.10436 -0.909642 -10.4767
ltibia 15.7729
lfoot -12.9568 0.284621
ltoes -25.5844
479
root 11.4891 18.0708 -2.06847 -169.27 22.1566 181.696
lowerback 4.52592 2.44826 -7.94562
upperback -1.32587 3.23992 6.16481
thorax -4.76666 2.04285 10.8375
lowerneck -24.7635 -6.64178 -15.135
upperneck 22.988 -2.76044 -0.525875
head 12.0045 -2.50069 1.77788
rclavicle 7.35503e-015 6.36111e-015
rhumerus 43.5538 10.838 -68.4692
rradius 39.2432
rwrist -14.9915
rhand -55.5397 13.9099
rfingers 7.12502
rthumb -27.8963 -14.0384
lclavicle 7.35503e-015 6.36111e-015
lhumerus 47.2001 -7.75911 87.6985
lradius 31.8314
lwrist -6.5283
lhand -28.1826 52.3494
lfingers 7.12502
lthumb -1.56225 442.323
rfemur -24.2524 -0.81527 16.8293
rtibia 37.1402
rfoot -19.6875 -7.91549
rtoes -11.3414
lfemur -6.95391 -1.13904 -10.2712
ltibia 15.8071
lfoot -12.9262 0.492589
ltoes -26.6845
